# xmcd CD database file generated by Grip 3.0.0
# 
# Track frame offsets:
#       188
#       18088
#       43588
#       69013
# 
# Disc length: 1258 seconds
# 
# Revision: 2
# Processed by: cddbd v1.4PL0 Copyright (c) Steve Scherf et al.
# Submitted via: Grip 3.0.0
# 
DISCID=2204e804
DTITLE=Rhonda and Phisical motion - It's my party
DYEAR=1900
DGENRE=Pop
TTITLE0=It's my party (radio version)
TTITLE1=It's my party (club beat version)
TTITLE2=It's my party (rave version)
TTITLE3=It's my party (P.M. version)
EXTD=
EXTT0=
EXTT1=
EXTT2=
EXTT3=
PLAYORDER=
